# xmcd
#
# Track frame offsets: 
#        150
#        12560
#        26522
#        39631
#        52581
#        63584
#        76615
#        86782
#        100365
#        111892
#        122806
#        135049
#        153960
#        163696
#        177048
#        186849
#        198267
#        211983
#
# Disc length: 3011 seconds
#
# Revision: 0
# Processed by: cddbd v1.5.2PL0 Copyright (c) Steve Scherf et al.
# Submitted via: ExactAudioCopyFreeDBPlugin 1.0
#
DISCID=e10bc112
DTITLE=Howlin' Wolf - Blues From Hell - CD1
DYEAR=2015
DGENRE=Blues
TTITLE0=Spoonful
TTITLE1=Smokestack Lightnin'
TTITLE2=Baby, How Long
TTITLE3=I Asked For Water (She Gave Me Gasoline)
TTITLE4=I Didn't Know
TTITLE5=Evil
TTITLE6=All Night Long
TTITLE7=Rockin' Daddy
TTITLE8=Poor Boy
TTITLE9=Come To Me Baby
TTITLE10=Dog Me Around
TTITLE11=House Rockin' Boogie
TTITLE12=Down In The Bottom
TTITLE13=I'm Leaving You
TTITLE14=The Natchez Burnin'
TTITLE15=Sitting On Top Of The World
TTITLE16=Riding In The Moonlight
TTITLE17=The Wolf Is At Your Door
EXTD=
EXTT0=
EXTT1=
EXTT2=
EXTT3=
EXTT4=
EXTT5=
EXTT6=
EXTT7=
EXTT8=
EXTT9=
EXTT10=
EXTT11=
EXTT12=
EXTT13=
EXTT14=
EXTT15=
EXTT16=
EXTT17=
PLAYORDER=
